<svg width="126" height="40" viewBox="0 0 126 40" fill="none" xmlns="http://www.w3.org/2000/svg">
<g style="mix-blend-mode:luminosity">
<path fill-rule="evenodd" clip-rule="evenodd" d="M19.611 5.05518C19.2632 4.98161 18.9045 4.98161 18.5567 5.05518C18.1547 5.14022 17.7954 5.34725 17.5097 5.51183L17.4318 5.55657L7.75016 11.0892C7.72336 11.1045 7.69576 11.1201 7.66746 11.1362C7.36506 11.3075 6.98486 11.5229 6.69286 11.8488C6.44046 12.1306 6.24946 12.4646 6.13256 12.8284C5.99736 13.2492 5.99896 13.6957 6.00026 14.0509C6.00036 14.084 6.00046 14.1164 6.00046 14.1479V25.0718C6.00046 25.1033 6.00036 25.1357 6.00026 25.1689C5.99896 25.524 5.99736 25.9705 6.13256 26.3913C6.24946 26.7552 6.44046 27.0891 6.69286 27.3709C6.98486 27.6968 7.36516 27.9123 7.66746 28.0836C7.69576 28.0996 7.72336 28.1152 7.75016 28.1305L17.4318 33.6632L17.5097 33.7079C17.7954 33.8725 18.1547 34.0795 18.5567 34.1646C18.9045 34.2381 19.2632 34.2381 19.611 34.1646C20.013 34.0795 20.3723 33.8725 20.658 33.7079L20.7358 33.6632L30.4175 28.1305C30.4293 28.1238 30.4413 28.1169 30.4535 28.11C30.4688 28.1013 30.4843 28.0925 30.5001 28.0836C30.8025 27.9123 31.1827 27.6968 31.4747 27.3709C31.7272 27.0891 31.9182 26.7552 32.0351 26.3913C32.1703 25.9705 32.1687 25.524 32.1674 25.1689C32.1673 25.1357 32.1672 25.1033 32.1672 25.0718V14.1479C32.1672 14.1164 32.1673 14.0841 32.1674 14.0509C32.1687 13.6957 32.1703 13.2492 32.0351 12.8284C31.9182 12.4646 31.7272 12.1306 31.4747 11.8488C31.1827 11.5229 30.8025 11.3075 30.5001 11.1362L30.499 11.1355C30.4712 11.1197 30.4439 11.1043 30.4175 11.0892L20.7358 5.55657L20.658 5.51183C20.3723 5.34725 20.013 5.14022 19.611 5.05518ZM18.7026 7.90942C18.9009 7.79612 19.0021 7.73888 19.0776 7.70142L19.0838 7.69833L19.0901 7.70142C19.1656 7.73888 19.2668 7.79612 19.4651 7.90942L28.1648 12.8809L19.0838 18.0703L10.0029 12.8809L18.7026 7.90942ZM8.61716 15.1681L17.7755 20.4017V30.7805L9.02086 25.7777C8.81166 25.6581 8.70476 25.5964 8.62976 25.5472L8.62346 25.5431L8.62296 25.5354C8.61766 25.4441 8.61716 25.3181 8.61716 25.0718V15.1681Z" fill="white"/>
<path d="M44.0748 24.108H48.2396V26.6325H40.8954V13.2068H44.0748V24.108Z" fill="white"/>
<path d="M51.169 14.8514C50.6112 14.8514 50.1526 14.6857 49.7931 14.3542C49.4461 14.0099 49.2725 13.5892 49.2725 13.0919C49.2725 12.5819 49.4461 12.1612 49.7931 11.8297C50.1526 11.4854 50.6112 11.3133 51.169 11.3133C51.7144 11.3133 52.1606 11.4854 52.5077 11.8297C52.8672 12.1612 53.0469 12.5819 53.0469 13.0919C53.0469 13.5892 52.8672 14.0099 52.5077 14.3542C52.1606 14.6857 51.7144 14.8514 51.169 14.8514ZM52.7494 15.9607V26.6324H49.57V15.9607H52.7494Z" fill="white"/>
<path d="M58.8091 15.8074C59.5404 15.8074 60.1788 15.9604 60.7242 16.2664C61.282 16.5724 61.7096 16.974 62.0071 17.4712V15.9604H65.1864V26.613C65.1864 27.5947 64.9943 28.4809 64.6101 29.2714C64.2382 30.0746 63.6618 30.7121 62.8809 31.1839C62.1124 31.6556 61.1518 31.8915 59.9991 31.8915C58.462 31.8915 57.2163 31.5154 56.2619 30.7631C55.3075 30.0236 54.7621 29.0164 54.6257 27.7414H57.7679C57.8671 28.1494 58.1026 28.4681 58.4744 28.6976C58.8463 28.9399 59.3049 29.061 59.8503 29.061C60.5073 29.061 61.0279 28.8634 61.4121 28.4681C61.8088 28.0856 62.0071 27.4672 62.0071 26.613V25.1021C61.6972 25.5994 61.2696 26.0074 60.7242 26.3261C60.1788 26.6321 59.5404 26.7851 58.8091 26.7851C57.9538 26.7851 57.1791 26.562 56.485 26.1157C55.7909 25.6567 55.2393 25.0129 54.8302 24.1841C54.4336 23.3426 54.2353 22.3736 54.2353 21.2771C54.2353 20.1806 54.4336 19.218 54.8302 18.3892C55.2393 17.5605 55.7909 16.923 56.485 16.4767C57.1791 16.0305 57.9538 15.8074 58.8091 15.8074ZM62.0071 21.2962C62.0071 20.4802 61.784 19.8364 61.3377 19.3646C60.9039 18.8929 60.3709 18.657 59.7387 18.657C59.1066 18.657 58.5674 18.8929 58.1212 19.3646C57.6873 19.8236 57.4704 20.4611 57.4704 21.2771C57.4704 22.0931 57.6873 22.7434 58.1212 23.2279C58.5674 23.6996 59.1066 23.9355 59.7387 23.9355C60.3709 23.9355 60.9039 23.6996 61.3377 23.2279C61.784 22.7561 62.0071 22.1122 62.0071 21.2962Z" fill="white"/>
<path d="M73.678 15.8452C74.8679 15.8452 75.8224 16.2532 76.5413 17.0692C77.2602 17.8725 77.6197 18.9817 77.6197 20.397V26.6317H74.4589V20.8368C74.4589 20.1228 74.2792 19.5682 73.9197 19.173C73.5602 18.7777 73.0768 18.5801 72.4695 18.5801C71.8621 18.5801 71.3787 18.7777 71.0192 19.173C70.6598 19.5682 70.48 20.1228 70.48 20.8368V26.6317H67.3006V12.4792H70.48V17.3943C70.8023 16.9226 71.2423 16.5465 71.8001 16.266C72.3579 15.9855 72.9839 15.8452 73.678 15.8452Z" fill="white"/>
<path d="M85.4254 23.8592V26.6323H83.8079C82.6551 26.6323 81.7565 26.3454 81.1119 25.7717C80.4674 25.1852 80.1451 24.2353 80.1451 22.9221V18.6763H78.8808V15.9606H80.1451V13.3596H83.3245V15.9606H85.4069V18.6763H83.3245V22.9603C83.3245 23.2791 83.3988 23.5086 83.5476 23.6488C83.6963 23.7891 83.9442 23.8592 84.2913 23.8592H85.4254Z" fill="white"/>
<path d="M90.1901 17.4708C90.4875 16.9736 90.9152 16.572 91.473 16.266C92.0307 15.96 92.6691 15.807 93.388 15.807C94.2431 15.807 95.0181 16.0301 95.7121 16.4763C96.4061 16.9226 96.9521 17.5601 97.3481 18.3888C97.7571 19.2176 97.9621 20.1802 97.9621 21.2767C97.9621 22.3732 97.7571 23.3422 97.3481 24.1837C96.9521 25.0125 96.4061 25.6563 95.7121 26.1153C95.0181 26.5616 94.2431 26.7847 93.388 26.7847C92.6567 26.7847 92.0183 26.6381 91.473 26.3448C90.9276 26.0388 90.4999 25.6372 90.1901 25.14V26.6317H87.0107V12.4792H90.1901V17.4708ZM94.7271 21.2767C94.7271 20.4607 94.5031 19.8232 94.0571 19.3642C93.6235 18.8925 93.0843 18.6566 92.4398 18.6566C91.8076 18.6566 91.2684 18.8925 90.8222 19.3642C90.3884 19.836 90.1715 20.4798 90.1715 21.2958C90.1715 22.1118 90.3884 22.7557 90.8222 23.2275C91.2684 23.6992 91.8076 23.9351 92.4398 23.9351C93.0719 23.9351 93.6111 23.6992 94.0571 23.2275C94.5031 22.743 94.7271 22.0927 94.7271 21.2767Z" fill="white"/>
<path d="M104.166 26.7851C103.15 26.7851 102.233 26.562 101.415 26.1157C100.609 25.6695 99.9706 25.032 99.4996 24.2032C99.0406 23.3745 98.8116 22.4055 98.8116 21.2962C98.8116 20.1997 99.0466 19.2371 99.5176 18.4084C99.9886 17.5669 100.634 16.923 101.452 16.4767C102.27 16.0305 103.187 15.8074 104.204 15.8074C105.22 15.8074 106.137 16.0305 106.955 16.4767C107.773 16.923 108.418 17.5669 108.889 18.4084C109.36 19.2371 109.595 20.1997 109.595 21.2962C109.595 22.3927 109.354 23.3617 108.87 24.2032C108.399 25.032 107.749 25.6695 106.918 26.1157C106.1 26.562 105.183 26.7851 104.166 26.7851ZM104.166 23.9546C104.774 23.9546 105.288 23.7251 105.71 23.2661C106.143 22.8071 106.36 22.1505 106.36 21.2962C106.36 20.442 106.15 19.7854 105.728 19.3264C105.319 18.8674 104.811 18.6379 104.204 18.6379C103.584 18.6379 103.069 18.8674 102.66 19.3264C102.251 19.7726 102.047 20.4292 102.047 21.2962C102.047 22.1505 102.245 22.8071 102.642 23.2661C103.051 23.7251 103.559 23.9546 104.166 23.9546Z" fill="white"/>
<path d="M117.232 26.6319L115.242 23.6675L113.569 26.6319H110.129L113.551 21.1813L110.036 15.9602H113.606L115.596 18.9054L117.269 15.9602H120.709L117.232 21.3343L120.802 26.6319H117.232Z" fill="white"/>
</g>
</svg>
