<svg width="60" height="60" viewBox="0 0 60 60" fill="none" xmlns="http://www.w3.org/2000/svg">
<path d="M29.5163 52.1244H26.875C26.875 52.1244 24.9228 52.1244 24.9228 50.1757C24.9228 48.2269 26.875 48.2269 26.875 48.2269H39.9665M29.5163 52.1244C29.5163 52.1244 30.5498 58.2 32.1575 58.2C33.7653 58.2 49.7277 58.2 51.2206 58.2C52.7135 58.2 53.9768 52.1244 53.9768 52.1244M29.5163 52.1244H53.9768M53.9768 52.1244H56.7329C56.7329 52.1244 58.8 52.1244 58.8 50.1757C58.8 48.2269 56.7329 48.2269 56.7329 48.2269H43.6413M41.8039 24.383V12.9196M41.8039 24.383C41.8039 24.383 41.0338 24.3007 39.9665 24.0859M41.8039 24.383C41.8039 24.383 42.5819 24.2518 43.6413 23.9795M41.8039 12.9196C41.8039 12.9196 42.9523 9.59517 46.6271 7.64639M41.8039 12.9196C41.8039 12.9196 39.5072 9.3659 36.8659 7.64639M46.6271 7.64639C50.3019 5.69761 52.5987 5.92688 52.5987 5.92688C52.5987 5.92688 52.5987 13.9513 52.5987 16.0147C52.5987 18.0781 50.5955 20.3668 48.2349 22.0903C47.0002 22.9917 45.0663 23.6133 43.6413 23.9795M46.6271 7.64639C46.6271 7.64639 44.1007 1.80005 41.8039 1.80005C39.5072 1.80005 36.8659 7.64639 36.8659 7.64639M36.8659 7.64639C34.2246 5.92688 31.0092 5.92688 31.0092 5.92688C31.0092 5.92688 31.0092 14.4098 31.0092 16.0147C31.0092 17.6196 32.6048 20.3537 34.7988 22.0903C36.1463 23.1568 38.3833 23.7672 39.9665 24.0859M39.9665 48.2269H41.8039H43.6413M39.9665 48.2269V24.0859M43.6413 48.2269V42.165M43.6413 23.9795V36.1032M43.6413 36.1032V42.165M43.6413 36.1032C43.6413 36.1032 44.3304 32.4074 47.5458 31.4903C50.7613 30.5732 53.7471 29.1976 53.7471 29.1976C53.7471 29.1976 53.7471 34.8147 50.991 38.7122C48.2349 42.6098 43.6413 42.165 43.6413 42.165M5.85964 26.9072L18.3084 41.8074M5.85964 26.9072L7.35252 25.8717M5.85964 26.9072C5.85964 26.9072 5.09505 27.4152 4.36673 27.9164M18.3084 41.8074L16.0802 44.1C16.0802 44.1 14.9318 44.6732 13.8983 43.7561C12.8648 42.8391 3.44804 31.3757 2.87385 30.6879C2.29966 30 2.64417 29.1976 3.21836 28.7391C3.44335 28.5594 3.89751 28.2393 4.36673 27.9164M18.3084 41.8074L22.5917 37.4001M7.35252 25.8717C7.35252 25.8717 1.49578 19.5795 6.54865 16.0147C11.6015 12.4499 16.4247 19.5795 16.4247 19.5795M7.35252 25.8717L16.4247 19.5795M16.4247 19.5795L19.0853 17.7342M19.0853 17.7342L20.9034 16.4732L31.0092 28.7391L26.875 32.9929M19.0853 17.7342C19.0853 17.7342 12.4054 8.6781 4.71124 13.6074C-2.98293 18.5366 4.36673 27.9164 4.36673 27.9164M26.875 32.9929L34.7988 37.5659M26.875 32.9929L22.5917 37.4001M34.7988 37.5659L35.6026 36.8781L38.0142 39.6293L32.6169 44.3293L30.0904 41.3488L31.0092 40.6107M34.7988 37.5659L31.0092 40.6107M31.0092 40.6107L22.5917 37.4001M22.8557 25.3C22.8557 25.3 22.8557 28.9683 21.3628 31.0318C19.8624 33.1055 16.3624 33.8747 14.817 31.8342C13.3605 29.9111 14.6091 27.066 16.7692 25.9879C18.8363 24.9561 22.8557 25.3 22.8557 25.3Z" stroke="black" stroke-linecap="round" stroke-linejoin="round"/>
</svg>
