<svg width="60" height="60" viewBox="0 0 60 60" fill="none" xmlns="http://www.w3.org/2000/svg">
<path d="M19.6733 58.8H7.39597L5.67485 39.9524M19.6733 58.8H58.8C58.8 58.8 57.7177 55.7681 56.0462 55.0305C54.6943 54.434 52.2597 55.0305 52.2597 55.0305C52.2597 55.0305 51.4565 50.8041 48.2438 49.8902C47.9715 49.8128 47.7034 49.7641 47.4406 49.7397M19.6733 58.8C19.6733 58.8 20.8835 55.8583 22.5418 55.0305C22.8783 54.8625 23.273 54.7617 23.6892 54.708M5.67485 39.9524H2.57684C2.57684 39.9524 1.19995 39.9524 1.19995 38.1247C1.19995 36.297 2.57684 36.297 2.57684 36.297H15.2557M5.67485 39.9524H25.0661M25.0661 39.9524H27.9346C27.9346 39.9524 29.1968 39.9524 29.1968 38.1247C29.1968 36.297 27.9346 36.297 27.9346 36.297H15.2557M25.0661 39.9524L23.6892 54.708M23.6892 54.708C25.3535 54.4931 27.3609 55.0305 27.3609 55.0305C27.3609 55.0305 28.9128 52.7138 30.4589 52.0606C32.1501 51.3461 35.1633 52.0606 35.1633 52.0606C35.1633 52.0606 35.6428 50.2465 37.9171 49.9354M15.2557 36.297V27.8441M15.2557 14.5936V14.9363M15.2557 24.2459V27.8441M15.2557 24.2459C15.2557 24.2459 16.4605 20.9904 19.5585 19.9624C22.6565 18.9343 27.3609 19.0485 27.3609 19.0485C27.3609 19.0485 25.2956 21.1618 24.4924 22.7039C23.6892 24.2459 23.9187 25.1027 22.1976 26.8161C20.4764 28.5295 15.2557 27.8441 15.2557 27.8441M15.2557 24.2459C15.2557 24.2459 12.3298 21.3331 9.46131 19.9624C6.59278 18.5916 2.57684 19.0485 2.57684 19.0485C2.57684 19.0485 4.87166 21.4473 5.67485 22.7039C6.47804 23.9604 7.05174 25.6738 8.77286 26.8161C10.494 27.9584 15.2557 27.8441 15.2557 27.8441M15.2557 24.2459V16.6497M15.2557 14.9363V16.6497M15.2557 14.9363C15.2557 14.9363 16.8047 11.6237 19.0996 10.3672C21.3944 9.11067 24.1482 8.99644 24.1482 8.99644C24.1482 8.99644 23.0007 12.3091 21.2796 14.5936C19.5585 16.8782 15.2557 16.6497 15.2557 16.6497M15.2557 14.9363C15.2557 14.9363 13.7067 11.6237 11.1824 10.3672C8.65812 9.11067 5.67485 8.99644 5.67485 8.99644C5.67485 8.99644 6.937 13.2229 9.46131 14.9363C11.9856 16.6497 15.2557 16.6497 15.2557 16.6497M47.1537 6.08362L48.2438 1.80005L58.8 5.11267L57.7099 9.39624M47.1537 6.08362L46.0637 10.3672C46.0637 10.3672 45.6247 12.5525 48.8175 14.0173M47.1537 6.08362L57.7099 9.39624M57.7099 9.39624L56.6199 13.6798C56.6199 13.6798 55.7449 15.2636 52.6039 15.0026M48.8175 14.0173C49.2745 14.227 49.806 14.422 50.4239 14.5936C51.2496 14.8231 51.9726 14.9501 52.6039 15.0026M48.8175 14.0173L43.6541 32.8278M52.6039 15.0026L47.4406 34.0125M47.4406 34.0125L39.4087 31.4994C39.4087 31.4994 36.3107 41.0946 35.737 44.293C35.1633 47.4914 37.9171 49.9354 37.9171 49.9354M47.4406 34.0125L51.9155 35.4974C51.9155 35.4974 49.2764 46.1898 48.588 48.0626C47.8996 49.9354 47.4406 49.7397 47.4406 49.7397M47.4406 49.7397C44.6027 49.477 42.392 52.0606 42.392 52.0606C42.392 52.0606 41.4741 49.8902 38.6055 49.8902C38.3595 49.8902 38.1304 49.9062 37.9171 49.9354" stroke="black" stroke-linecap="round" stroke-linejoin="round"/>
</svg>
