<svg width="92" height="28" viewBox="0 0 92 28" fill="none" xmlns="http://www.w3.org/2000/svg">
<path d="M69.502 27.9994L74.6457 0.0413818H81.542L88.3348 25.9698H87.7549L87.7756 0.0413818H92.0004V27.9994H85.1455L78.3734 2.02951H78.8498L73.6439 27.9994H69.502Z" fill="black"/>
<path d="M49.7056 27.9994L44.2383 0.0413818H48.8151L53.2884 25.3486H53.0813L58.8386 0.0413818H64.4509L70.2289 25.3486H70.0011L74.5572 0.0413818H79.134L73.5838 27.9994H67.1017L61.593 2.67151H61.6965L56.167 27.9994H49.7056Z" fill="black"/>
<path d="M19.627 27.9994L28.9877 0H35.0556L44.4164 27.9994H40.0467L37.6029 20.2333L32.0424 17.3754L26.4818 20.2333L24.0174 27.9994H19.627ZM27.2067 17.3754H36.8781L32.0734 2.50587H32.0113L27.2067 17.3754Z" fill="black"/>
<path d="M0 27.9994V0.0413818H4.22477V25.0793H16.4849V27.9994H0Z" fill="black"/>
</svg>
