<svg width="60" height="60" viewBox="0 0 60 60" fill="none" xmlns="http://www.w3.org/2000/svg">
<path d="M29.1735 49.1645C25.7486 48.5646 24.578 44.3346 20.7814 44.2401C16.4967 44.1335 15.2767 49.2349 10.9907 49.2349C6.7047 49.2349 1.19995 44.2401 1.19995 44.2401V58.2H58.7999V44.2401C58.7999 44.2401 53.2952 49.2349 49.0092 49.2349C44.7232 49.2349 43.5032 44.1335 39.2185 44.2401C35.1318 44.3418 34.0878 49.2349 29.9999 49.2349C29.7098 49.2349 29.4351 49.2103 29.1735 49.1645ZM29.1735 49.1645C29.1735 49.1645 27.7633 42.4933 28.5806 32.9697M44.3046 9.27615C44.3046 9.27615 34.7051 14.2036 30.6842 23.108M30.6842 23.108C29.9858 24.6547 29.4557 26.3213 29.1735 28.1029C28.9062 29.7899 28.7138 31.4177 28.5806 32.9697M30.6842 23.108C30.6842 23.108 39.9814 30.7924 48.3735 17.3448C49.8993 14.0149 49.3167 11.4534 50.6622 7.48313C51.6051 4.70083 53.3324 2.10406 53.3324 2.10406C53.3324 2.10406 45.3218 0.311033 35.1496 5.43396C30.6291 7.71058 28.1722 11.4542 28.0291 14.9114C27.5205 21.6992 30.6842 23.108 30.6842 23.108ZM28.5806 32.9697C28.5806 32.9697 22.3072 32.7135 18.1112 29.6398C13.9152 26.566 10.2278 20.4185 10.2278 20.4185M7.68472 53.3333C8.38696 53.3333 8.95624 53.9067 8.95624 54.614C8.95624 55.3213 8.38696 55.8947 7.68472 55.8947C6.98248 55.8947 6.4132 55.3213 6.4132 54.614C6.4132 53.9067 6.98248 53.3333 7.68472 53.3333ZM12.7708 51.5403C13.4731 51.5403 14.0423 52.1137 14.0423 52.821C14.0423 53.5283 13.4731 54.1017 12.7708 54.1017C12.0686 54.1017 11.4993 53.5283 11.4993 52.821C11.4993 52.1137 12.0686 51.5403 12.7708 51.5403ZM18.8741 53.3333C19.5764 53.3333 20.1456 53.9067 20.1456 54.614C20.1456 55.3213 19.5764 55.8947 18.8741 55.8947C18.1719 55.8947 17.6026 55.3213 17.6026 54.614C17.6026 53.9067 18.1719 53.3333 18.8741 53.3333ZM31.335 53.8456C32.0373 53.8456 32.6066 54.419 32.6066 55.1263C32.6066 55.8336 32.0373 56.407 31.335 56.407C30.6328 56.407 30.0635 55.8336 30.0635 55.1263C30.0635 54.419 30.6328 53.8456 31.335 53.8456ZM25.9946 51.5403C26.6969 51.5403 27.2662 52.1137 27.2662 52.821C27.2662 53.5283 26.6969 54.1017 25.9946 54.1017C25.2924 54.1017 24.7231 53.5283 24.7231 52.821C24.7231 52.1137 25.2924 51.5403 25.9946 51.5403ZM37.1841 50.7718C37.8863 50.7718 38.4556 51.3452 38.4556 52.0526C38.4556 52.7599 37.8863 53.3333 37.1841 53.3333C36.4818 53.3333 35.9125 52.7599 35.9125 52.0526C35.9125 51.3452 36.4818 50.7718 37.1841 50.7718ZM43.5417 52.821C44.2439 52.821 44.8132 53.3944 44.8132 54.1017C44.8132 54.809 44.2439 55.3824 43.5417 55.3824C42.8394 55.3824 42.2701 54.809 42.2701 54.1017C42.2701 53.3944 42.8394 52.821 43.5417 52.821ZM51.4251 52.821C52.1274 52.821 52.6966 53.3944 52.6966 54.1017C52.6966 54.809 52.1274 55.3824 51.4251 55.3824C50.7229 55.3824 50.1536 54.809 50.1536 54.1017C50.1536 53.3944 50.7229 52.821 51.4251 52.821ZM2.09002 9.27615C2.09002 9.27615 0.56419 24.0046 6.28604 29.1275C12.0079 34.2504 17.7297 29.3836 17.7297 29.3836C17.7297 29.3836 21.6715 26.4379 19.8913 20.9308C18.1112 15.4237 13.5337 14.3991 9.14697 12.7341C4.76022 11.0692 2.09002 9.27615 2.09002 9.27615Z" stroke="black" stroke-linecap="round" stroke-linejoin="round"/>
</svg>
