<svg width="60" height="60" viewBox="0 0 60 60" fill="none" xmlns="http://www.w3.org/2000/svg">
<path d="M3.43623 46.4389L7.60447 58.7999H52.3051L56.1702 46.4389M3.43623 46.4389L0.600098 38.0283H7.8751H9.69385M3.43623 46.4389H56.1702M56.1702 46.4389L58.8001 38.0283H51.5251H49.8854M20.835 13.4602C18.8374 7.7016 14.8999 1.19995 11.8071 1.19995C7.47712 1.19996 1.23686 13.4336 1.23686 19.5504C1.23686 24.9126 4.84689 29.1547 9.69385 30.0715M20.835 13.4602C22.881 7.60277 27.0133 1.19996 30.1458 1.19995C33.2387 1.19995 37.1762 7.7016 39.1737 13.4602M20.835 13.4602C20.0528 15.6994 19.5756 17.8588 19.5756 19.5504C19.5756 21.4301 20.0192 23.1722 20.8042 24.6816M20.8042 24.6816C19.2862 27.474 16.5796 29.5797 13.3313 30.1199M20.8042 24.6816C22.2702 27.5004 24.9268 29.5079 28.1082 30.0855M39.1737 13.4602C41.2197 7.60277 45.352 1.19996 48.4846 1.19995C52.8145 1.19994 58.8001 13.9433 58.8001 19.5504C58.8001 24.6973 54.9979 29.3551 49.8854 30.1397M39.1737 13.4602C38.3916 15.6994 37.9143 17.8588 37.9143 19.5504C37.9143 21.4301 38.3579 23.1722 39.1429 24.6816M39.1429 24.6816C40.6284 27.538 43.3365 29.5613 46.5743 30.1078M39.1429 24.6816C37.6058 27.5092 34.8497 29.6328 31.5467 30.1397M9.69385 38.0283H11.5126H13.3313M9.69385 38.0283V30.0715M13.3313 38.0283H15.1501H28.1082M13.3313 38.0283V30.1199M9.69385 30.0715C10.376 30.2005 11.0826 30.2637 11.8071 30.2548C12.3263 30.2485 12.8351 30.2025 13.3313 30.1199M46.5743 38.0283H44.2501H31.5467M46.5743 38.0283H47.8876H49.8854M46.5743 38.0283V30.1078M46.5743 30.1078C47.1933 30.2123 47.8317 30.2628 48.4846 30.2548C48.9608 30.249 49.4284 30.2098 49.8854 30.1397M49.8854 38.0283V30.1397M28.1082 38.0283H29.7001H31.5467M28.1082 38.0283V30.0855M28.1082 30.0855C28.7669 30.2051 29.4481 30.2633 30.1458 30.2548C30.6221 30.249 31.0896 30.2098 31.5467 30.1397M31.5467 38.0283V30.1397" stroke="black" stroke-linecap="round" stroke-linejoin="round"/>
</svg>
